<svg width="64" height="64" viewBox="0 0 64 64" fill="none" xmlns="http://www.w3.org/2000/svg">
<rect width="64" height="64" fill="#1C1B1B"/>
<path d="M48.5312 17.0667C49.6282 17.0667 50.4558 18.029 50.0131 19.8188L44.6435 45.1275C44.2682 46.927 43.1808 47.3601 41.6796 46.5229L28.8713 37.0634C28.8216 37.0277 28.7811 36.9808 28.7532 36.9264C28.7253 36.872 28.7107 36.8118 28.7107 36.7506C28.7107 36.6895 28.7253 36.6292 28.7532 36.5749C28.7811 36.5205 28.8216 36.4735 28.8713 36.4379L43.6619 23.0811C44.3355 22.4844 43.5176 22.1957 42.6322 22.7346L24.0694 34.4459C24.0131 34.4826 23.9491 34.506 23.8824 34.5144C23.8157 34.5227 23.748 34.5158 23.6844 34.494L15.8031 32.0016C14.0517 31.4916 14.0517 30.2887 16.1977 29.4323L47.7325 17.2687C47.9826 17.1488 48.2541 17.08 48.5312 17.0667Z" fill="#F8F8F8" stroke="#F8F8F8" stroke-width="0.962306" stroke-linecap="round" stroke-linejoin="round"/>
</svg>
